<svg width="20" height="20" viewBox="0 0 20 20" fill="none" xmlns="http://www.w3.org/2000/svg">
<g clip-path="url(#clip0)">
<path d="M10.0391 8.34373H10.3449C10.4174 8.34373 10.4869 8.31492 10.5382 8.26365C10.5895 8.21237 10.6183 8.14282 10.6183 8.0703C10.6183 7.99778 10.5895 7.92823 10.5382 7.87695C10.4869 7.82567 10.4174 7.79686 10.3449 7.79686H10.0516L10.1609 7.07686C10.1663 7.04135 10.1646 7.00513 10.156 6.97027C10.1474 6.93541 10.132 6.90259 10.1107 6.87368C10.0677 6.81529 10.0032 6.77639 9.93149 6.76553C9.85977 6.75468 9.78668 6.77275 9.7283 6.81578C9.66991 6.85881 9.63101 6.92327 9.62015 6.99499L9.50937 7.72733C9.49778 7.80362 9.50281 7.88152 9.52411 7.95569C9.5454 8.02986 9.58246 8.09856 9.63276 8.15709C9.68305 8.21562 9.74539 8.26259 9.81552 8.29481C9.88564 8.32702 9.9619 8.34371 10.0391 8.34373Z" fill="white" stroke="white" stroke-width="0.2"/>
<path d="M9.98047 9.92189C10.2148 9.93073 10.4483 9.88859 10.6648 9.79838C10.8813 9.70816 11.0756 9.57204 11.2344 9.39939C11.2584 9.37184 11.2766 9.33976 11.288 9.30504C11.2994 9.27032 11.3038 9.23367 11.3008 9.19724C11.2978 9.16082 11.2875 9.12537 11.2705 9.09299C11.2536 9.06061 11.2303 9.03195 11.2021 9.00871C11.1739 8.98547 11.1414 8.96812 11.1063 8.95768C11.0713 8.94724 11.0346 8.94393 10.9982 8.94794C10.9619 8.95195 10.9268 8.9632 10.8949 8.98103C10.863 8.99886 10.835 9.0229 10.8125 9.05174C10.7044 9.1612 10.5744 9.24659 10.431 9.3023C10.2876 9.35801 10.1341 9.38279 9.98047 9.37502C9.82679 9.3828 9.67321 9.358 9.52979 9.30226C9.38638 9.24652 9.25636 9.16109 9.14828 9.05158C9.10137 8.99838 9.03562 8.96549 8.96491 8.95985C8.89421 8.95421 8.82408 8.97627 8.76933 9.02136C8.71458 9.06646 8.6795 9.13107 8.67149 9.20154C8.66348 9.27202 8.68317 9.34285 8.7264 9.39908C8.88515 9.57178 9.07949 9.70797 9.29601 9.79824C9.51252 9.8885 9.74605 9.93069 9.98047 9.92189Z" fill="white" stroke="white" stroke-width="0.2"/>
<path d="M16.1659 13.6763C15.9601 13.6188 15.7498 13.5792 15.5372 13.5578L13.5951 13.3669L13.207 13.3281C13.0848 13.3158 12.9669 13.276 12.8622 13.2117C12.7575 13.1475 12.6686 13.0603 12.6023 12.9569C12.5342 12.8544 12.4902 12.7379 12.4737 12.6159L12.323 11.4361C12.9287 10.9457 13.3648 10.2771 13.5695 9.52516C13.6606 9.18891 13.7237 8.84406 13.798 8.50391C13.8699 8.51678 13.9427 8.52353 14.0158 8.52406C14.2912 8.52406 14.56 8.43894 14.7852 8.28035C15.0105 8.12177 15.1813 7.89747 15.2742 7.63813C15.3671 7.37879 15.3776 7.09708 15.3042 6.83155C15.2309 6.56601 15.0773 6.32961 14.8645 6.15469H15.4687C15.5208 6.15463 15.5718 6.13972 15.6157 6.11171C15.6595 6.08369 15.6945 6.04374 15.7165 5.99654C15.7385 5.94934 15.7465 5.89685 15.7397 5.84523C15.7329 5.79362 15.7114 5.74503 15.678 5.70516L14.178 3.92391V2.61719C14.1772 1.92339 13.9012 1.25822 13.4107 0.76759C12.9202 0.276955 12.255 0.000909782 11.5612 0L8.43874 0C7.74486 0.000785752 7.07963 0.276777 6.58898 0.767424C6.09833 1.25807 5.82234 1.92331 5.82156 2.61719V3.92375L4.32156 5.705C4.288 5.7449 4.26655 5.79355 4.25971 5.84523C4.25288 5.89691 4.26095 5.94947 4.28298 5.99672C4.30502 6.04396 4.34009 6.08393 4.38407 6.11192C4.42805 6.13991 4.47911 6.15474 4.53124 6.15469H5.0964C4.88339 6.32957 4.72965 6.56602 4.65622 6.83166C4.58279 7.09729 4.59326 7.37914 4.6862 7.63859C4.77914 7.89805 4.95 8.12244 5.1754 8.28103C5.4008 8.43963 5.6697 8.52467 5.94531 8.52453C6.03112 8.52409 6.11668 8.51524 6.20077 8.49813L6.38593 9.34562C6.5684 10.1682 7.02341 10.905 7.67718 11.4366L7.5264 12.6164C7.5099 12.7383 7.46593 12.8549 7.39781 12.9573C7.33151 13.0608 7.24269 13.1479 7.13798 13.2122C7.03326 13.2765 6.91537 13.3163 6.79312 13.3286L6.40499 13.3667L4.46312 13.5578C4.25052 13.5792 4.04017 13.6188 3.83437 13.6763C3.03683 13.8959 2.33323 14.3708 1.83127 15.0283C1.32931 15.6858 1.05663 16.4897 1.05499 17.3169V19.7266C1.05503 19.799 1.08381 19.8685 1.13502 19.9198C1.18622 19.971 1.25566 19.9999 1.32812 20H18.6719C18.7444 20 18.8139 19.9711 18.8652 19.9199C18.9164 19.8686 18.9453 19.7991 18.9453 19.7266V17.3177C18.9438 16.4903 18.6712 15.6862 18.1693 15.0286C17.6673 14.3709 16.9636 13.8959 16.1659 13.6763ZM14.0156 7.97766C13.9818 7.97763 13.9479 7.97533 13.9144 7.97078C14.0262 7.45859 14.1714 6.94109 14.1823 6.41437C14.3732 6.45541 14.5421 6.56562 14.6566 6.72379C14.771 6.88196 14.8229 7.07688 14.8022 7.27101C14.7815 7.46514 14.6897 7.64475 14.5445 7.77522C14.3992 7.90569 14.2108 7.9778 14.0156 7.97766ZM6.36843 2.61719C6.36905 2.0683 6.58737 1.54207 6.9755 1.15394C7.36362 0.765816 7.88985 0.547495 8.43874 0.546875H11.5612C12.1101 0.547495 12.6364 0.765816 13.0245 1.15394C13.4126 1.54207 13.6309 2.0683 13.6316 2.61719V3.75H6.36843V2.61719ZM6.22218 4.29688H13.7778L14.8812 5.60781H5.11874L6.22218 4.29688ZM5.94531 7.97766C5.74664 7.97787 5.55517 7.90327 5.40902 7.7687C5.26287 7.63414 5.17275 7.44947 5.15659 7.25146C5.14044 7.05345 5.19944 6.85661 5.32185 6.70014C5.44426 6.54366 5.6211 6.43902 5.81718 6.40703C5.82718 6.93453 5.97234 7.4525 6.08437 7.96516C6.03848 7.97348 5.99194 7.97767 5.94531 7.97766ZM7.08093 9.74656C6.86921 9.22469 6.79093 8.63719 6.67124 8.08875C6.54984 7.51688 6.36374 6.92719 6.36374 6.33875V6.15469H7.65265C7.63838 6.20701 7.63082 6.26093 7.63015 6.31516C7.63015 6.48784 7.69875 6.65345 7.82085 6.77555C7.94295 6.89765 8.10856 6.96625 8.28124 6.96625C8.45392 6.96625 8.61953 6.89765 8.74164 6.77555C8.86374 6.65345 8.93234 6.48784 8.93234 6.31516C8.93167 6.26093 8.92411 6.20701 8.90984 6.15469H10.8708C10.8565 6.20701 10.8489 6.26093 10.8483 6.31516C10.847 6.40825 10.8657 6.50053 10.9031 6.58578C10.9405 6.67104 10.9958 6.74727 11.0651 6.80935C11.1345 6.87143 11.2164 6.91791 11.3053 6.94566C11.3942 6.9734 11.4879 6.98176 11.5803 6.97018C11.6727 6.95859 11.7615 6.92733 11.8408 6.87851C11.92 6.82968 11.9879 6.76442 12.0398 6.68713C12.0917 6.60984 12.1265 6.52232 12.1417 6.43047C12.1569 6.33862 12.1522 6.24458 12.128 6.15469H13.6362V6.33875C13.6361 6.56462 13.612 6.78984 13.5644 7.01062L13.3255 8.10156C13.2459 8.46203 13.1692 8.82344 13.0897 9.18391C12.9306 9.93862 12.5054 10.6109 11.8917 11.0781C11.6089 11.2683 11.3054 11.426 10.9872 11.5481C10.3462 11.7602 9.65405 11.7602 9.01312 11.5481C8.69468 11.426 8.39104 11.2683 8.10796 11.0781C7.65099 10.7358 7.29593 10.2755 7.08093 9.74656ZM8.82812 12.0638C9.31829 12.2272 9.8372 12.2865 10.3516 12.2379C10.866 12.1892 11.3646 12.0337 11.8155 11.7812L11.9311 12.6861C11.9459 12.8011 11.9758 12.9136 12.0201 13.0208C11.4229 13.4222 10.7196 13.6366 9.99999 13.6366C9.28038 13.6366 8.57709 13.4222 7.97984 13.0208C8.0242 12.9136 8.05415 12.801 8.0689 12.6859L8.18452 11.7812C8.38952 11.8958 8.60504 11.9904 8.82812 12.0638ZM7.67656 13.4783C8.36428 13.9378 9.17285 14.1831 9.99999 14.1831C10.8271 14.1831 11.6357 13.9378 12.3234 13.4783C12.538 13.6947 12.8194 13.8324 13.122 13.8689L12.8387 14.3652C12.6712 14.6583 12.4293 14.9019 12.1374 15.0716C11.8455 15.2412 11.514 15.3308 11.1764 15.3313H8.82359C8.48607 15.3308 8.15463 15.2414 7.86275 15.0719C7.57087 14.9024 7.32889 14.6589 7.16124 14.3659L6.87796 13.8695C7.18064 13.8328 7.46204 13.6949 7.67656 13.4783ZM1.60156 17.3177C1.60277 16.6724 1.7968 16.0422 2.15873 15.5081C2.52067 14.9739 3.03399 14.56 3.63281 14.3197V19.4531H1.60156V17.3177ZM4.17968 14.1547C4.29089 14.1308 4.40336 14.1132 4.51656 14.102L6.28218 13.9284L6.68655 14.637C6.90213 15.0137 7.21326 15.3267 7.58854 15.5446C7.96382 15.7626 8.38994 15.8776 8.8239 15.8781H9.78749V19.4531H8.82577V17.2917C8.82579 17.2558 8.81874 17.2202 8.805 17.1871C8.79127 17.1539 8.77113 17.1237 8.74573 17.0983C8.72034 17.0729 8.69019 17.0528 8.657 17.0391C8.62382 17.0253 8.58825 17.0183 8.55234 17.0183H5.41437C5.34185 17.0183 5.2723 17.0471 5.22102 17.0984C5.16974 17.1496 5.14093 17.2192 5.14093 17.2917V19.4531H4.17968V14.1547ZM5.68749 19.4531V17.5652H8.2789V19.4531H5.68749ZM10.3337 15.8781H11.1761C11.6101 15.8776 12.0362 15.7625 12.4115 15.5446C12.7868 15.3267 13.0979 15.0135 13.3134 14.6369L13.7187 13.9284L15.4844 14.102C15.5976 14.1132 15.71 14.1308 15.8212 14.1547V19.4531H14.8594V17.2917C14.8594 17.2192 14.8306 17.1496 14.7793 17.0984C14.728 17.0471 14.6585 17.0183 14.5859 17.0183H11.4476C11.4117 17.0183 11.3762 17.0253 11.343 17.0391C11.3098 17.0528 11.2796 17.0729 11.2543 17.0983C11.2289 17.1237 11.2087 17.1539 11.195 17.1871C11.1812 17.2202 11.1742 17.2558 11.1742 17.2917V19.4531H10.3341L10.3337 15.8781ZM11.7208 19.4531V17.5652H14.3125V19.4531H11.7208ZM18.3981 19.4531H16.3669V14.3197C16.9657 14.56 17.479 14.9739 17.8409 15.5081C18.2029 16.0422 18.3969 16.6724 18.3981 17.3177V19.4531Z" fill="white" stroke="white" stroke-width="0.2"/>
</g>
<defs>
<clipPath id="clip0">
<rect width="20" height="20" fill="white"/>
</clipPath>
</defs>
</svg>
