<svg width="23" height="23" viewBox="0 0 23 23" fill="none" xmlns="http://www.w3.org/2000/svg">
<path d="M17.9688 0H5.03125C2.25256 0 0 2.25256 0 5.03125V17.9688C0 20.7474 2.25256 23 5.03125 23H17.9688C20.7474 23 23 20.7474 23 17.9688V5.03125C23 2.25256 20.7474 0 17.9688 0ZM21.5625 17.9688C21.5625 19.9535 19.9535 21.5625 17.9688 21.5625H5.03125C3.04647 21.5625 1.4375 19.9535 1.4375 17.9688V5.03125C1.4375 3.04647 3.04647 1.4375 5.03125 1.4375H17.9688C19.9535 1.4375 21.5625 3.04647 21.5625 5.03125V17.9688Z" fill="white"/>
<path d="M7.1875 5.03125H5.75C5.35303 5.03125 5.03125 5.35303 5.03125 5.75V7.1875C5.03125 7.58447 5.35303 7.90625 5.75 7.90625H7.1875C7.58447 7.90625 7.90625 7.58447 7.90625 7.1875V5.75C7.90625 5.35303 7.58447 5.03125 7.1875 5.03125Z" fill="white"/>
<path d="M7.1875 10.0625H5.75C5.35303 10.0625 5.03125 10.3843 5.03125 10.7812V12.2188C5.03125 12.6157 5.35303 12.9375 5.75 12.9375H7.1875C7.58447 12.9375 7.90625 12.6157 7.90625 12.2188V10.7812C7.90625 10.3843 7.58447 10.0625 7.1875 10.0625Z" fill="white"/>
<path d="M7.1875 15.0938H5.75C5.35303 15.0938 5.03125 15.4155 5.03125 15.8125V17.25C5.03125 17.647 5.35303 17.9688 5.75 17.9688H7.1875C7.58447 17.9688 7.90625 17.647 7.90625 17.25V15.8125C7.90625 15.4155 7.58447 15.0938 7.1875 15.0938Z" fill="white"/>
<path d="M17.9688 5.75H9.34375V7.1875H17.9688V5.75Z" fill="white"/>
<path d="M17.9688 10.7812H9.34375V12.2188H17.9688V10.7812Z" fill="white"/>
<path d="M17.9688 15.8125H9.34375V17.25H17.9688V15.8125Z" fill="white"/>
</svg>
