<svg width="30" height="28" viewBox="0 0 30 28" fill="none" xmlns="http://www.w3.org/2000/svg">
<path d="M4.39453 28H25.6055C28.0286 28 30 26.1601 30 23.8984V4.10156C30 1.83994 28.0286 0 25.6055 0H4.39453C1.97136 0 0 1.83994 0 4.10156V23.8984C0 26.1601 1.97136 28 4.39453 28ZM1.75781 4.10156C1.75781 2.74463 2.94067 1.64062 4.39453 1.64062H25.6055C27.0593 1.64062 28.2422 2.74463 28.2422 4.10156V23.8984C28.2422 25.2554 27.0593 26.3594 25.6055 26.3594H4.39453C2.94067 26.3594 1.75781 25.2554 1.75781 23.8984V4.10156Z" fill="black"/>
<path d="M15 21.3828C19.3616 21.3828 22.9102 18.0708 22.9102 14C22.9102 9.9292 19.3616 6.61719 15 6.61719C10.6384 6.61719 7.08984 9.9292 7.08984 14C7.08984 18.0708 10.6384 21.3828 15 21.3828ZM15 8.25781C18.3925 8.25781 21.1523 10.8337 21.1523 14C21.1523 17.1663 18.3925 19.7422 15 19.7422C11.6075 19.7422 8.84766 17.1663 8.84766 14C8.84766 10.8337 11.6075 8.25781 15 8.25781Z" fill="black"/>
<path d="M23.7891 8.25781C25.2429 8.25781 26.4258 7.15381 26.4258 5.79687C26.4258 4.43994 25.2429 3.33594 23.7891 3.33594C22.3352 3.33594 21.1523 4.43994 21.1523 5.79687C21.1523 7.15381 22.3352 8.25781 23.7891 8.25781ZM23.7891 4.97656C24.2736 4.97656 24.668 5.34463 24.668 5.79687C24.668 6.24911 24.2736 6.61719 23.7891 6.61719C23.3045 6.61719 22.9102 6.24911 22.9102 5.79687C22.9102 5.34463 23.3045 4.97656 23.7891 4.97656Z" fill="black"/>
</svg>
