<svg width="58" height="58" viewBox="0 0 58 58" fill="none" xmlns="http://www.w3.org/2000/svg">
<path d="M53.4803 50.8136L44.5978 35.4306C48.0714 31.6593 50.1555 26.6474 50.1555 21.1393C50.1555 15.2838 47.7736 10.0238 43.9527 6.20283C40.1317 2.38189 34.8717 0 29.0163 0C23.1608 0 17.9008 2.38189 14.0798 6.20283C10.2589 10.0238 7.877 15.2838 7.877 21.1393C7.877 26.6474 9.96115 31.6593 13.4347 35.4306L4.55228 50.8136C4.40341 51.0617 4.35379 51.4091 4.45303 51.7565C4.65152 52.3023 5.24699 52.5504 5.79284 52.3519L12.8889 49.5234L13.9806 57.1157C14.0302 57.4134 14.1791 57.7112 14.4768 57.86C14.973 58.1578 15.6181 57.9593 15.9159 57.4631L24.8976 41.9312C26.1878 42.1793 27.5772 42.3281 28.917 42.3281C30.3065 42.3281 31.6463 42.1793 32.9365 41.9312L41.9182 57.4631C42.2159 57.9593 42.861 58.1082 43.3572 57.86C43.655 57.7112 43.8038 57.4134 43.8534 57.1157L44.9451 49.5234L52.0412 52.3519C52.587 52.5504 53.1825 52.3023 53.381 51.7565C53.6787 51.4091 53.6291 51.0617 53.4803 50.8136ZM15.7174 53.791L14.8242 47.8859C14.7249 47.34 14.2287 46.9431 13.6332 46.9927C13.534 46.9927 13.4347 47.0423 13.3355 47.0919L7.82737 49.2753L14.973 36.9193C17.2061 38.9042 19.8857 40.4425 22.863 41.3357L15.7174 53.791ZM29.0163 40.1944C23.7563 40.1944 18.9925 38.0606 15.5685 34.6366C12.1445 31.2127 10.0108 26.4489 10.0108 21.1889C10.0108 15.9289 12.1445 11.1651 15.5685 7.74114C18.9925 4.21793 23.7563 2.08415 29.0163 2.08415C34.2763 2.08415 39.04 4.21793 42.464 7.64189C45.888 11.0659 48.0218 15.8296 48.0218 21.0896C48.0218 26.3496 45.888 31.1134 42.464 34.5374C39.04 38.0606 34.2763 40.1944 29.0163 40.1944ZM44.697 47.0919C44.5978 47.0423 44.4985 46.9927 44.3993 46.9927C43.8534 46.8934 43.3076 47.2904 43.2084 47.8859L42.3151 53.791L35.1695 41.3357C38.1468 40.4425 40.8265 38.9042 43.0595 36.9193L50.2052 49.2753L44.697 47.0919Z" fill="#00AD79"/>
<path d="M38.7423 17.4672C38.4942 17.1198 38.1964 16.8717 37.8491 16.7228C37.5017 16.574 37.1047 16.4747 36.7078 16.5243H32.5891L31.2989 12.4553C31.1004 11.8598 30.6538 11.3636 30.1576 11.0658C29.8102 10.917 29.4628 10.8177 29.0659 10.8177C28.6689 10.8177 28.3215 10.917 27.9742 11.0658C27.4283 11.3636 27.0313 11.8102 26.8328 12.4553L25.5427 16.5243H21.424C21.027 16.4747 20.63 16.574 20.2826 16.7228C19.9353 16.8717 19.6376 17.1198 19.3894 17.4672C18.9925 18.013 18.8932 18.6085 18.9925 19.204C19.0917 19.7994 19.3894 20.3453 19.9353 20.7423L23.4089 23.2234L22.0691 27.2925C22.0691 27.3421 22.0691 27.3917 22.0194 27.3917C21.9202 27.6894 21.9202 28.0368 21.9698 28.3842C22.0194 28.7315 22.1683 29.0789 22.4164 29.3766C22.8134 29.9225 23.3593 30.2202 23.9547 30.3194C24.5502 30.4187 25.1953 30.2698 25.6915 29.8728L29.1651 27.3421L32.6387 29.8728C33.1845 30.2698 33.78 30.3691 34.3755 30.3194C34.971 30.2202 35.5168 29.9225 35.9138 29.3766C36.1619 29.0789 36.2612 28.7315 36.3604 28.3842C36.41 28.0368 36.41 27.7391 36.3108 27.3917C36.3108 27.3421 36.3108 27.2925 36.2612 27.2925L34.9213 23.2234L38.3949 20.7423C38.9408 20.3453 39.2385 19.7994 39.3378 19.204C39.2881 18.6581 39.1393 18.013 38.7423 17.4672ZM37.0055 19.0551L36.9559 19.1047L32.9364 22.0325C32.5891 22.2806 32.3906 22.7768 32.5395 23.1738L34.0778 27.8879V27.9376C34.0778 27.9872 34.0778 28.0368 34.0778 28.0864C34.0778 28.136 34.0778 28.1857 34.0281 28.1857C33.9785 28.2353 33.9289 28.2849 33.8296 28.2849C33.78 28.2849 33.6808 28.2849 33.6312 28.2353L29.5621 25.2579C29.3636 25.1091 29.1651 25.0594 28.917 25.0594C28.7185 25.0594 28.4704 25.1091 28.2719 25.2579L24.2028 28.2353C24.1532 28.2849 24.054 28.2849 24.0044 28.2849C23.9547 28.2849 23.8555 28.2353 23.8059 28.1857C23.7562 28.136 23.7562 28.0864 23.7562 28.0864C23.7562 28.0368 23.7562 27.9872 23.7562 27.9376V27.8879L25.2945 23.1738C25.4434 22.7272 25.2945 22.2806 24.8976 22.0325L21.0766 19.1047L21.027 19.0551C20.9774 19.0055 20.9277 18.9558 20.9277 18.9062C20.9277 18.8566 20.9277 18.7574 20.9774 18.7077C20.9774 18.7077 20.9774 18.6581 21.027 18.6581C21.0766 18.6085 21.0766 18.6085 21.1262 18.6085C21.1759 18.6085 21.2255 18.5589 21.2751 18.5589C21.3247 18.5589 21.3744 18.5589 21.424 18.5589H26.287C26.7336 18.5589 27.1306 18.2611 27.2794 17.8145L28.8178 13.0507C28.8178 13.0011 28.8674 12.9019 28.9666 12.9019C29.0162 12.9019 29.0659 12.8523 29.0659 12.8523C29.1155 12.8523 29.1651 12.8523 29.1651 12.9019C29.2147 12.9515 29.2644 13.0011 29.314 13.0507L30.8523 17.8145C31.0012 18.2115 31.3981 18.5589 31.8447 18.5589H36.7078C36.7574 18.5589 36.807 18.5589 36.8566 18.5589C36.9062 18.5589 36.9559 18.5589 37.0055 18.6085C37.0551 18.6085 37.0551 18.6581 37.1047 18.6581C37.1047 18.6581 37.1047 18.7077 37.1544 18.7077C37.204 18.7574 37.204 18.807 37.204 18.9062C37.1047 18.9558 37.0551 19.0055 37.0055 19.0551Z" fill="#00AD79"/>
<path d="M40.6775 9.47798C37.7002 6.50062 33.5815 4.66458 29.0162 4.66458C24.4509 4.66458 20.3323 6.50062 17.3549 9.47798C14.3775 12.4553 12.5415 16.574 12.5415 21.1393C12.5415 25.7046 14.3775 29.8233 17.3549 32.8006C20.3323 35.778 24.4509 37.614 29.0162 37.614C33.5815 37.614 37.7002 35.778 40.6775 32.8006C43.6549 29.8233 45.4909 25.7046 45.4909 21.1393C45.4909 16.574 43.6549 12.4553 40.6775 9.47798ZM39.2385 31.312C36.6085 33.942 32.986 35.5299 29.0162 35.5299C25.0464 35.5299 21.424 33.8923 18.8436 31.312C16.2136 28.682 14.6257 25.1091 14.6257 21.1393C14.6257 17.1695 16.2632 13.547 18.8436 10.9667C21.424 8.33666 25.0464 6.69911 29.0162 6.69911C32.986 6.69911 36.6085 8.33666 39.1889 10.917C41.8189 13.547 43.4068 17.1199 43.4068 21.0897C43.4068 25.0595 41.8189 28.7316 39.2385 31.312Z" fill="#00AD79"/>
</svg>
