<svg width="81" height="60" viewBox="0 0 81 60" fill="none" xmlns="http://www.w3.org/2000/svg">
<path d="M0.671875 38.5547C0.671875 32.4818 2.76302 26.0365 6.94531 19.2188C11.1849 12.3438 18.8047 6.07031 29.8047 0.398438L31.8672 4.26562C26.3672 8.16146 22.2995 11.4271 19.6641 14.0625C15.0234 18.8177 12.7031 23.3724 12.7031 27.7266C12.7031 29.2161 13.1328 30.1901 13.9922 30.6484C14.8516 31.1641 15.5964 31.4219 16.2266 31.4219C18.4036 31.1354 19.8359 30.9922 20.5234 30.9922C24.1901 30.9922 27.1979 32.3385 29.5469 35.0312C31.8958 37.6667 33.0703 40.875 33.0703 44.6562C33.0703 48.8958 31.7812 52.4479 29.2031 55.3125C26.625 58.1198 23.0729 59.5234 18.5469 59.5234C13.2188 59.5234 8.89323 57.6328 5.57031 53.8516C2.30469 50.013 0.671875 44.9141 0.671875 38.5547ZM48.1094 38.5547C48.1094 32.138 50.3438 25.5208 54.8125 18.7031C59.2812 11.8854 66.7578 5.78385 77.2422 0.398438L79.3047 4.26562C74.1484 7.875 70.1953 11.0547 67.4453 13.8047C62.5755 18.6745 60.1406 23.2005 60.1406 27.3828C60.1406 28.5859 60.4557 29.5599 61.0859 30.3047C61.7161 31.0495 62.5755 31.4219 63.6641 31.4219C65.8411 31.1354 67.2734 30.9922 67.9609 30.9922C71.5703 30.9922 74.5495 32.3099 76.8984 34.9453C79.3047 37.5807 80.5078 40.8177 80.5078 44.6562C80.5078 49.125 79.1901 52.7344 76.5547 55.4844C73.9193 58.1771 70.3385 59.5234 65.8125 59.5234C60.6562 59.5234 56.4167 57.6328 53.0938 53.8516C49.7708 50.013 48.1094 44.9141 48.1094 38.5547Z" fill="#00AD79"/>
</svg>
