<svg width="55" height="55" viewBox="0 0 55 55" fill="none" xmlns="http://www.w3.org/2000/svg">
<g clip-path="url(#clip0)">
<path d="M16.2909 23.862L16.2889 23.897C16.1534 26.2705 17.4829 28.494 19.6769 29.56L19.6994 29.571C20.4729 29.941 21.1069 30.551 21.5069 31.3095L21.5159 31.326C22.6213 33.431 24.9078 34.707 27.3453 34.579L27.3823 34.577C28.2663 34.5275 29.1438 34.7555 29.8918 35.2295C31.9558 36.5205 34.5758 36.5205 36.6398 35.2295C37.3878 34.7555 38.2652 34.5275 39.1492 34.577L39.1862 34.579C41.6197 34.708 43.9092 33.431 45.0172 31.3225L45.0227 31.311C45.4242 30.5505 46.0597 29.9395 46.8357 29.569L46.8537 29.56C49.0477 28.4935 50.3777 26.2705 50.2417 23.8965L50.2397 23.8635C50.1947 23.0275 50.4267 22.2 50.9007 21.5095C52.2652 19.5196 52.2652 16.8956 50.9012 14.9051C50.4277 14.2151 50.1947 13.3881 50.2397 12.5521L50.2417 12.5171C50.3777 10.1431 49.0477 7.92013 46.8517 6.85314L46.8317 6.84314C46.0597 6.47414 45.4272 5.86715 45.0267 5.11065L45.0152 5.08815C43.9092 2.98316 41.6197 1.70767 39.1862 1.83517L39.1487 1.83717C38.2652 1.88667 37.3878 1.65867 36.6403 1.18467H36.6393C34.5753 -0.106317 31.9553 -0.106317 29.8913 1.18467C29.1433 1.65817 28.2658 1.88617 27.3818 1.83667L27.3448 1.83467C24.9108 1.70567 22.6218 2.98266 21.5164 5.08715L21.5079 5.10265C21.1074 5.86264 20.4729 6.47314 19.6984 6.84364L19.6774 6.85364C17.4834 7.91963 16.1534 10.1431 16.2894 12.5171L16.2914 12.5501C16.3364 13.3861 16.1044 14.2136 15.6304 14.9036C14.2659 16.8941 14.2659 19.5186 15.6304 21.5085C16.1039 22.1985 16.3364 23.026 16.2909 23.862ZM17.3159 16.0666C18.0474 15.0016 18.4059 13.7246 18.3359 12.4346L18.3339 12.3996C18.2619 10.8266 19.1449 9.36562 20.5704 8.69713L20.5879 8.68863C21.7574 8.12863 22.7148 7.20664 23.3188 6.05964L23.3288 6.04064C24.0633 4.64165 25.6018 3.79366 27.2358 3.88066L27.2718 3.88216C28.5793 3.95566 29.8768 3.61866 30.9828 2.91766C32.3793 2.04417 34.1513 2.04417 35.5478 2.91766C36.6538 3.61766 37.9513 3.95516 39.2582 3.88266L39.2942 3.88066C40.9362 3.79466 42.4672 4.64165 43.1997 6.03664L43.2132 6.06214C43.8172 7.20764 44.7737 8.12813 45.9417 8.68763L45.9587 8.69613C47.4067 9.40012 48.2857 10.8536 48.1972 12.4001L48.1952 12.4366C48.1252 13.7266 48.4842 15.0031 49.2157 16.0681C50.0997 17.3576 50.0992 19.0576 49.2147 20.3466C48.4837 21.412 48.1252 22.689 48.1952 23.979L48.1972 24.0135C48.2857 25.56 47.4067 27.014 45.9582 27.7185L45.9432 27.7255C44.7727 28.2865 43.8142 29.2095 43.2097 30.3585L43.2022 30.3735C42.4672 31.7725 40.9312 32.621 39.2947 32.5335L39.2592 32.5315C37.9517 32.4585 36.6538 32.796 35.5473 33.4965C34.1513 34.3695 32.3793 34.3695 30.9833 33.4965C29.9773 32.859 28.8103 32.521 27.6193 32.522C27.5038 32.522 27.3878 32.525 27.2718 32.5315L27.2358 32.533C25.6233 32.6355 24.0978 31.7915 23.3273 30.371L23.3168 30.3515C22.7138 29.2065 21.7579 28.2865 20.5904 27.727L20.5714 27.7175C19.1229 27.0135 18.2439 25.5595 18.3329 24.0135L18.3349 23.977C18.4044 22.687 18.0454 21.41 17.3144 20.3456C16.4309 19.0561 16.4314 17.3561 17.3159 16.0676V16.0666Z" fill="#00AD79"/>
<path d="M26.6584 28.793C27.1379 29.0925 27.7694 28.946 28.0689 28.4665L40.1993 9.03361C40.3973 8.72311 40.4138 8.33011 40.2418 8.00462C40.0698 7.67862 39.7358 7.47062 39.3678 7.45912C38.9998 7.44762 38.6538 7.63462 38.4618 7.94912L26.3319 27.382C26.0324 27.862 26.1784 28.4935 26.6584 28.793Z" fill="#00AD79"/>
<path d="M27.7453 18.2576C30.2388 18.2576 32.2678 15.9441 32.2678 13.1006C32.2678 10.2571 30.2388 7.94413 27.7453 7.94413C25.2518 7.94413 23.2233 10.2571 23.2233 13.1006C23.2233 15.9441 25.2518 18.2576 27.7453 18.2576ZM27.7453 9.99212C29.1098 9.99212 30.2198 11.3866 30.2198 13.1006C30.2198 14.8146 29.1098 16.2096 27.7453 16.2096C26.3813 16.2096 25.2713 14.8141 25.2713 13.1006C25.2713 11.3871 26.3813 9.99212 27.7453 9.99212Z" fill="#00AD79"/>
<path d="M34.2633 23.3145C34.2633 26.158 36.2918 28.471 38.7853 28.471C41.2787 28.471 43.3077 26.1575 43.3077 23.3145C43.3077 20.472 41.2792 18.1581 38.7858 18.1581C36.2918 18.1581 34.2633 20.4705 34.2633 23.3145ZM41.2597 23.3145C41.2597 25.0285 40.1498 26.423 38.7853 26.423C37.4213 26.423 36.3113 25.0285 36.3113 23.3145C36.3113 21.6005 37.4213 20.206 38.7853 20.206C40.1498 20.206 41.2597 21.5995 41.2597 23.3145Z" fill="#00AD79"/>
<path d="M54.8672 40.3184C53.5112 37.9119 50.5042 36.9954 48.0367 38.2364L40.0153 42.0264C38.9078 39.9669 36.7833 38.6559 34.4453 38.5899L27.0403 38.3859C25.8679 38.3524 24.7174 38.0549 23.6749 37.5169L22.9214 37.1264C19.0634 35.1155 14.4649 35.1205 10.6109 37.1394L10.6579 35.4325C10.6734 34.867 10.228 34.396 9.66246 34.3805L1.54251 34.157C0.977008 34.1415 0.506511 34.587 0.491012 35.1525L0.000514569 52.9718C-0.0149854 53.5373 0.430512 54.0083 0.996009 54.0238L9.11596 54.2473H9.14446C9.69896 54.2468 10.1525 53.8053 10.168 53.2513L10.191 52.3988L12.3004 51.2694C13.1284 50.8239 14.0969 50.7179 15.0014 50.9739L27.5978 54.5093C27.6198 54.5158 27.6418 54.5208 27.6643 54.5258C28.5748 54.7163 29.5028 54.8118 30.4333 54.8113C32.4033 54.8123 34.3503 54.3878 36.1408 53.5658C36.1848 53.5458 36.2273 53.5228 36.2678 53.4968L54.5317 41.6824C54.9872 41.3884 55.1342 40.7899 54.8672 40.3184ZM2.076 52.0043L2.51 36.2329L8.58296 36.3999L8.14847 52.1718L2.076 52.0043ZM35.2178 51.7359C32.9933 52.7398 30.5088 53.0168 28.1178 52.5278L15.5549 49.0024C14.1414 48.6024 12.6274 48.7684 11.3339 49.4639L10.256 50.0409L10.545 39.5544C13.9604 37.2824 18.3414 37.0489 21.9794 38.9444L22.7329 39.3349C24.0499 40.0149 25.5029 40.3904 26.9844 40.4329L34.3893 40.6369C36.4693 40.6964 38.2358 42.1774 38.6578 44.2154L27.6278 43.9119C27.0623 43.8964 26.5919 44.3419 26.5764 44.9074C26.5609 45.4729 27.0063 45.9439 27.5718 45.9594L39.7443 46.2944H39.7733C40.3273 46.2939 40.7808 45.8524 40.7963 45.2984C40.8088 44.8534 40.7753 44.4079 40.6973 43.9699L48.9232 40.0824L48.9472 40.0709C50.1142 39.4799 51.5257 39.6774 52.4852 40.5659L35.2178 51.7359Z" fill="#00AD79"/>
</g>
<defs>
<clipPath id="clip0">
<rect width="55" height="55" fill="white"/>
</clipPath>
</defs>
</svg>
