<svg width="21" height="21" viewBox="0 0 21 21" fill="none" xmlns="http://www.w3.org/2000/svg">
<path d="M20.5091 10.8644C20.3654 10.5732 17.2915 5.50626 17.2137 5.37973C16.6398 4.44851 15.6452 3.89258 14.553 3.89258C14.3972 3.89258 14.2442 3.9044 14.0944 3.92655C14.0943 3.92626 14.0938 3.92564 14.0937 3.92548C13.829 3.49658 13.3709 3.24048 12.8683 3.24048C12.0748 3.24048 11.4291 3.8861 11.4291 4.67971V7.19446H9.57086V4.67971C9.57086 3.88615 8.92523 3.24048 8.13162 3.24048C7.62992 3.24048 7.17268 3.49564 6.90566 3.92655C6.75592 3.9044 6.60281 3.89258 6.44695 3.89258C5.35474 3.89258 4.36012 4.44855 3.78627 5.37981C3.77835 5.39265 3.75428 5.43178 3.17587 6.40142C3.07645 6.56811 3.131 6.78385 3.29765 6.88328C3.46434 6.98266 3.68008 6.92823 3.7795 6.7615C4.25545 5.96367 4.37136 5.77024 4.38477 5.74846C4.82962 5.0265 5.60055 4.59547 6.44699 4.59547C7.78196 4.59547 8.86797 5.68152 8.86797 7.01645V7.01666V10.48C8.02592 9.10673 6.51093 8.18868 4.78545 8.18868C4.00619 8.18868 3.26992 8.37604 2.61913 8.70781C2.78627 8.42739 2.96284 8.13113 3.14003 7.83402C3.23941 7.66729 3.18486 7.45155 3.01813 7.35216C2.8514 7.25278 2.6357 7.30733 2.53628 7.47406C1.78955 8.72643 0.614249 10.6056 0.465773 10.9158C0.167343 11.5396 0 12.2376 0 12.9742C0 15.6129 2.14675 17.7596 4.78545 17.7596C7.42414 17.7596 9.57086 15.6129 9.57086 12.9742V12.0404H11.4291V12.9742C11.4291 15.6129 13.5759 17.7596 16.2145 17.7596C18.8532 17.7596 21 15.6129 21 12.9742C21 12.2173 20.8233 11.5011 20.5091 10.8644ZM8.86797 5.04496C8.54329 4.64698 8.12272 4.33043 7.64173 4.13056C7.77478 4.0112 7.9473 3.94336 8.13166 3.94336C8.53767 3.94336 8.86797 4.27366 8.86797 4.67967V5.04496ZM4.78545 17.0566C2.53431 17.0566 0.702883 15.2253 0.702883 12.9741C0.702883 10.723 2.53431 8.89156 4.78545 8.89156C7.03659 8.89156 8.86797 10.723 8.86797 12.9741C8.86797 15.2253 7.03655 17.0566 4.78545 17.0566ZM9.57081 9.98799V7.8973H11.4291V9.98799H9.57081ZM11.4291 11.3375H9.57086V10.6909H11.4291V11.3375ZM12.132 4.67971C12.132 4.2737 12.4623 3.9434 12.8683 3.9434C13.0532 3.9434 13.2263 4.01169 13.3587 4.13043C12.8775 4.3303 12.4567 4.64694 12.132 5.045V4.67971ZM12.132 7.01666V7.01645C12.132 5.68148 13.218 4.59547 14.553 4.59547C15.3995 4.59547 16.1703 5.02654 16.6152 5.74846C16.6574 5.81691 17.5357 7.28999 18.3808 8.70781C17.73 8.376 16.9937 8.18864 16.2145 8.18864C14.489 8.18864 12.974 9.10673 12.1319 10.4799V7.01666H12.132ZM16.2146 17.0566C13.9634 17.0566 12.132 15.2252 12.132 12.9741C12.132 10.7229 13.9635 8.89152 16.2146 8.89152C18.4657 8.89152 20.2971 10.7229 20.2971 12.9741C20.2971 15.2252 18.4657 17.0566 16.2146 17.0566Z" fill="white"/>
<path d="M19.2957 11.8666C19.23 11.684 19.0287 11.5892 18.8461 11.6548C18.6635 11.7205 18.5686 11.9218 18.6343 12.1044C18.7342 12.3827 18.785 12.6753 18.785 12.9741C18.785 14.3915 17.6319 15.5446 16.2145 15.5446C14.7971 15.5446 13.644 14.3915 13.644 12.9741C13.644 11.5567 14.7971 10.4036 16.2145 10.4036C16.9258 10.4036 17.6119 10.7024 18.0967 11.2235C18.229 11.3655 18.4513 11.3735 18.5935 11.2413C18.7356 11.1091 18.7436 10.8867 18.6113 10.7446C17.994 10.0812 17.1204 9.70068 16.2145 9.70068C14.4095 9.70068 12.9411 11.1691 12.9411 12.9741C12.9411 14.779 14.4095 16.2474 16.2145 16.2474C18.0195 16.2474 19.4879 14.779 19.4879 12.9741C19.4879 12.594 19.4232 12.2214 19.2957 11.8666Z" fill="white"/>
<path d="M4.78545 9.70068C2.98048 9.70068 1.51208 11.1691 1.51208 12.9741C1.51208 14.779 2.98048 16.2474 4.78545 16.2474C6.59042 16.2474 8.05882 14.779 8.05882 12.9741C8.05882 11.1691 6.59038 9.70068 4.78545 9.70068ZM4.78545 15.5445C3.36808 15.5445 2.21497 14.3914 2.21497 12.974C2.21497 11.5566 3.36804 10.4035 4.78545 10.4035C6.20287 10.4035 7.35594 11.5566 7.35594 12.974C7.35594 14.3914 6.20279 15.5445 4.78545 15.5445Z" fill="white"/>
</svg>
