<svg width="20" height="20" viewBox="0 0 20 20" fill="none" xmlns="http://www.w3.org/2000/svg">
<g clip-path="url(#clip0)">
<path d="M11.4464 7.31217C11.0427 7.31149 10.7157 6.98438 10.7149 6.58081C10.7149 6.3389 10.5188 6.14284 10.2769 6.14284C10.0352 6.14284 9.83896 6.3389 9.83896 6.58081C9.83999 7.29934 10.3171 7.93028 11.0085 8.12685V8.4815C11.0085 8.72341 11.2045 8.91947 11.4464 8.91947C11.6883 8.91947 11.8844 8.72341 11.8844 8.4815V8.12685C12.6561 7.90821 13.1487 7.15409 13.0383 6.35943C12.928 5.56494 12.2486 4.97334 11.4464 4.97351C11.0425 4.97351 10.7149 4.64607 10.7149 4.24215C10.7149 3.83806 11.0425 3.51061 11.4464 3.51061C11.8503 3.51061 12.1778 3.83806 12.1778 4.24215C12.1778 4.48388 12.3738 4.68011 12.6157 4.68011C12.8577 4.68011 13.0537 4.48388 13.0537 4.24215C13.0529 3.52344 12.5755 2.8925 11.8844 2.6961V2.43333C11.8844 2.19142 11.6883 1.99536 11.4464 1.99536C11.2045 1.99536 11.0085 2.19142 11.0085 2.43333V2.6961C10.2365 2.91457 9.74401 3.66886 9.85453 4.46336C9.96487 5.25802 10.6442 5.84944 11.4464 5.84944C11.8503 5.84944 12.1778 6.17689 12.1778 6.58081C12.1778 6.98473 11.8503 7.31217 11.4464 7.31217Z" fill="white"/>
<path d="M6.58057 14.9023C5.2648 14.9023 4.19812 15.969 4.19812 17.2848C4.19812 18.6007 5.2648 19.6674 6.58057 19.6674C7.89635 19.6674 8.96303 18.6007 8.96303 17.2848C8.96166 15.9695 7.89583 14.9037 6.58057 14.9023ZM6.58057 18.7915C5.74844 18.7915 5.07405 18.1169 5.07405 17.2848C5.07405 16.4528 5.74844 15.7783 6.58057 15.7783C7.4127 15.7783 8.0871 16.4528 8.0871 17.2848C8.0871 18.1169 7.4127 18.7915 6.58057 18.7915Z" fill="white"/>
<path d="M19.5662 4.90345H16.5398C16.2596 2.33708 14.0829 0.335449 11.4464 0.335449C8.80973 0.335449 6.63308 2.33708 6.35286 4.90345H4.10162L3.79077 3.13842C3.59642 2.05189 2.74479 1.20214 1.65792 1.01002L0.514764 0.808484C0.27645 0.766228 0.0490855 0.924989 0.0066578 1.1633C-0.0355989 1.40145 0.123163 1.62898 0.361477 1.67124L1.50463 1.87277C2.22847 2.00108 2.79526 2.56787 2.92356 3.2917L4.47389 12.038C4.65711 13.0845 5.56623 13.8477 6.62881 13.8466H15.826C16.7923 13.8495 17.6455 13.2172 17.9238 12.2919L19.9823 5.46852C20.0204 5.33525 19.9963 5.19189 19.9166 5.07863C19.8332 4.96914 19.7039 4.90447 19.5662 4.90345ZM11.4464 1.21138C13.7926 1.21138 15.6947 3.11344 15.6947 5.45963C15.6947 7.80598 13.7926 9.70787 11.4464 9.70787C9.10005 9.70787 7.19816 7.80598 7.19816 5.45963C7.20038 3.1143 9.10108 1.2136 11.4464 1.21138ZM17.0872 12.0335C16.9222 12.5892 16.4101 12.9692 15.8303 12.9664H6.63308C5.99513 12.9681 5.44904 12.5091 5.34109 11.8802L4.25935 5.7751H6.33523C6.50495 8.47576 8.74472 10.5794 11.4507 10.5794C14.1568 10.5794 16.3966 8.47576 16.5661 5.7751H18.9794L17.0872 12.0335Z" fill="white"/>
<path d="M15.7778 14.9023C14.4621 14.9023 13.3954 15.969 13.3954 17.2848C13.3954 18.6007 14.4621 19.6674 15.7778 19.6674C17.0936 19.6674 18.1603 18.6007 18.1603 17.2848C18.1589 15.9695 17.0931 14.9037 15.7778 14.9023ZM15.7778 18.7915C14.9457 18.7915 14.2713 18.1169 14.2713 17.2848C14.2713 16.4528 14.9457 15.7783 15.7778 15.7783C16.61 15.7783 17.2844 16.4528 17.2844 17.2848C17.2844 18.1169 16.61 18.7915 15.7778 18.7915Z" fill="white"/>
</g>
<defs>
<clipPath id="clip0">
<rect width="20" height="20" fill="white"/>
</clipPath>
</defs>
</svg>
