<svg width="30" height="29" viewBox="0 0 30 29" fill="none" xmlns="http://www.w3.org/2000/svg">
<path d="M15 29C23.2712 29 30 22.4955 30 14.5C30 6.50446 23.2712 0 15 0C6.72875 0 0 6.50446 0 14.5C0 22.4955 6.72875 29 15 29ZM15 1.8125C22.2375 1.8125 28.125 7.50375 28.125 14.5C28.125 21.4963 22.2375 27.1875 15 27.1875C7.7625 27.1875 1.875 21.4963 1.875 14.5C1.875 7.50375 7.7625 1.8125 15 1.8125Z" fill="black"/>
<path d="M9.86996 17.1034L11.83 16.2806L11.28 16.8134C11.1037 16.9838 11.005 17.2146 11.005 17.4539V21.0003C11.005 21.8123 12.02 22.2062 12.605 21.6407L14.5725 19.7388L18.86 21.8111C19.415 22.0794 20.0862 21.7616 20.2012 21.1622L22.6475 8.15935C22.7762 7.45973 22.0637 6.89423 21.3825 7.15281L5.48746 13.1667C4.77496 13.4349 4.67996 14.3774 5.32496 14.775L8.99246 17.037C9.25496 17.1989 9.58621 17.2243 9.86996 17.1034ZM20.5025 9.43415L18.5812 19.6506L14.8062 17.8272C14.4412 17.6508 14.0062 17.7245 13.725 17.9976L12.88 18.8144V17.8321L16.6387 14.1986C17.3675 13.4941 16.5475 12.3317 15.6025 12.7269L9.58121 15.2523L7.88871 14.2083L20.5025 9.43415Z" fill="black"/>
</svg>
