<svg width="60" height="60" viewBox="0 0 60 60" fill="none" xmlns="http://www.w3.org/2000/svg">
<path d="M14 39.4999C10.691 39.4999 8.00003 42.1909 8.00003 45.4999C8.00003 48.8089 10.691 51.4999 14 51.4999C17.3091 51.4999 20 48.8089 20 45.4999C20 42.1909 17.3089 39.4999 14 39.4999ZM14 49.4998C11.794 49.4998 10.0001 47.7058 10.0001 45.4999C10.0001 43.2938 11.7941 41.4999 14 41.4999C16.206 41.4999 18 43.294 18 45.4999C18 47.7058 16.206 49.4998 14 49.4998Z" fill="#00AD79"/>
<path d="M48 39.4999C44.691 39.4999 42 42.1909 42 45.4999C42 48.8089 44.691 51.4999 48 51.4999C51.309 51.4999 54 48.8089 54 45.4999C54 42.1909 51.309 39.4999 48 39.4999ZM48 49.4998C45.7939 49.4998 44 47.7058 44 45.4999C44 43.2938 45.7941 41.4999 48 41.4999C50.2061 41.4999 52 43.294 52 45.4999C52 47.7058 50.2061 49.4998 48 49.4998Z" fill="#00AD79"/>
<path d="M59.841 33.959L50.841 19.9589C50.657 19.6729 50.34 19.4999 49.9999 19.4999H39C38.447 19.4999 38 19.9479 38 20.4999V45.4998C38 46.0529 38.447 46.4998 39 46.4998H43V44.4998H40V21.5H49.4539L58 34.7939V44.5H52.9999V46.4999H58.9999C59.5529 46.4999 59.9999 46.053 59.9999 45.5V34.4999C60 34.3089 59.945 34.1199 59.841 33.959Z" fill="#00AD79"/>
<path d="M44 32.4998V25.4999H52.0001V23.4999H43.0001C42.4471 23.4999 42.0001 23.9479 42.0001 24.4998V33.4998C42.0001 34.0528 42.4471 34.4997 43.0001 34.4997H58.0001V32.4997H44V32.4998Z" fill="#00AD79"/>
<path d="M39 12.5003H0.999961C0.448008 12.5003 0 12.9483 0 13.5002V45.5003C0 46.0533 0.448008 46.5003 0.999961 46.5003H9V44.5002H2.00004V14.5002H38V44.5002H19V46.5003H39C39.553 46.5003 40 46.0533 40 45.5003V13.5002C40 12.9483 39.553 12.5003 39 12.5003Z" fill="#00AD79"/>
<path d="M6.99997 40.5001H0.999969V42.5001H6.99997V40.5001Z" fill="#00AD79"/>
<path d="M38 40.5001H21V42.5001H38V40.5001Z" fill="#00AD79"/>
<path d="M59 40.5001H55V42.5001H59V40.5001Z" fill="#00AD79"/>
<path d="M39 16.4999H3.99997V18.4999H39V16.4999Z" fill="#00AD79"/>
<path d="M14.9999 44.5H12.9999V46.5001H14.9999V44.5Z" fill="#00AD79"/>
<path d="M49.0001 44.5H47V46.5001H49.0001V44.5Z" fill="#00AD79"/>
<path d="M18 8.49982H3.99997V10.4999H18V8.49982Z" fill="#00AD79"/>
<path d="M2.00004 8.49982H0V10.4999H2.00004V8.49982Z" fill="#00AD79"/>
</svg>
