<svg width="30" height="29" viewBox="0 0 30 29" fill="none" xmlns="http://www.w3.org/2000/svg">
<path d="M4.39453 28.5449H25.6055C28.0286 28.5449 30 26.6393 30 24.2969V4.70312C30 2.36073 28.0286 0.455078 25.6055 0.455078H4.39453C1.97136 0.455078 0 2.36073 0 4.70312V24.2969C0 26.6393 1.97136 28.5449 4.39453 28.5449ZM1.75781 4.70312C1.75781 3.29773 2.94067 2.1543 4.39453 2.1543H25.6055C27.0593 2.1543 28.2422 3.29773 28.2422 4.70312V24.2969C28.2422 25.7023 27.0593 26.8457 25.6055 26.8457H4.39453C2.94067 26.8457 1.75781 25.7023 1.75781 24.2969V4.70312Z" fill="black"/>
<path d="M10.6055 8.80762V20.3566L21.1816 14.4874L10.6055 8.80762ZM12.3633 11.6954L17.6074 14.5117L12.3633 17.4219V11.6954Z" fill="black"/>
</svg>
